<svg width="982" height="203" viewBox="0 0 982 203" fill="none" xmlns="http://www.w3.org/2000/svg">
<path fill-rule="evenodd" clip-rule="evenodd" d="M227.349 108.825C230.029 104.184 230.029 98.466 227.349 93.825L177.51 7.50001C174.83 2.85899 169.878 4.59138e-06 164.519 4.35713e-06L64.8398 0C59.4808 -2.34249e-07 54.5289 2.85898 51.8494 7.5L2.00962 93.825C-0.669873 98.466 -0.669873 104.184 2.00962 108.825L51.8494 195.15C54.5289 199.791 59.4808 202.65 64.8397 202.65H164.519C169.878 202.65 174.83 199.791 177.51 195.15L227.349 108.825ZM186.122 67.8223C186.941 65.9321 185.251 63.9178 183.247 64.3964L149.614 72.4306C147.806 72.8624 147.085 75.0455 148.28 76.4692L153.407 82.5802L126.933 105.73L105.826 81.8255C103.098 78.7359 98.3883 78.4265 95.2796 81.1328L65.2412 107.283C63.5089 106.64 61.6352 106.29 59.6795 106.29C50.8429 106.29 43.6795 113.453 43.6795 122.29C43.6795 131.126 50.8429 138.29 59.6795 138.29C68.516 138.29 75.6795 131.126 75.6795 122.29C75.6795 120.977 75.5214 119.701 75.2233 118.48L99.5113 97.3365L120.629 121.254C123.361 124.348 128.08 124.653 131.188 121.935L163.051 94.0733L168.16 100.162C169.355 101.586 171.63 101.255 172.369 99.5494L186.122 67.8223Z" fill="#194B7D"/>
<path d="M327.4 156.1C318.9 156.1 310.65 155.05 302.65 152.95C294.65 150.85 288.15 148.05 283.15 144.55L292.9 122.65C297.6 125.75 303.05 128.25 309.25 130.15C315.45 132.05 321.55 133 327.55 133C338.95 133 344.65 130.15 344.65 124.45C344.65 121.45 343 119.25 339.7 117.85C336.5 116.35 331.3 114.8 324.1 113.2C316.2 111.5 309.6 109.7 304.3 107.8C299 105.8 294.45 102.65 290.65 98.35C286.85 94.05 284.95 88.25 284.95 80.95C284.95 74.55 286.7 68.8 290.2 63.7C293.7 58.5 298.9 54.4 305.8 51.4C312.8 48.4 321.35 46.9 331.45 46.9C338.35 46.9 345.15 47.7 351.85 49.3C358.55 50.8 364.45 53.05 369.55 56.05L360.4 78.1C350.4 72.7 340.7 70 331.3 70C325.4 70 321.1 70.9 318.4 72.7C315.7 74.4 314.35 76.65 314.35 79.45C314.35 82.25 315.95 84.35 319.15 85.75C322.35 87.15 327.5 88.6 334.6 90.1C342.6 91.8 349.2 93.65 354.4 95.65C359.7 97.55 364.25 100.65 368.05 104.95C371.95 109.15 373.9 114.9 373.9 122.2C373.9 128.5 372.15 134.2 368.65 139.3C365.15 144.4 359.9 148.5 352.9 151.6C345.9 154.6 337.4 156.1 327.4 156.1ZM414.904 72.55H382.654V49H476.704V72.55H444.604V154H414.904V72.55ZM559.246 133.6H514.846L506.596 154H476.296L522.646 49H551.896L598.396 154H567.496L559.246 133.6ZM550.546 111.7L537.046 78.1L523.546 111.7H550.546ZM630.292 72.55H598.042V49H692.092V72.55H659.992V154H630.292V72.55ZM746.164 156.1C737.664 156.1 729.414 155.05 721.414 152.95C713.414 150.85 706.914 148.05 701.914 144.55L711.664 122.65C716.364 125.75 721.814 128.25 728.014 130.15C734.214 132.05 740.314 133 746.314 133C757.714 133 763.414 130.15 763.414 124.45C763.414 121.45 761.764 119.25 758.464 117.85C755.264 116.35 750.064 114.8 742.864 113.2C734.964 111.5 728.364 109.7 723.064 107.8C717.764 105.8 713.214 102.65 709.414 98.35C705.614 94.05 703.714 88.25 703.714 80.95C703.714 74.55 705.464 68.8 708.964 63.7C712.464 58.5 717.664 54.4 724.564 51.4C731.564 48.4 740.114 46.9 750.214 46.9C757.114 46.9 763.914 47.7 770.614 49.3C777.314 50.8 783.214 53.05 788.314 56.05L779.164 78.1C769.164 72.7 759.464 70 750.064 70C744.164 70 739.864 70.9 737.164 72.7C734.464 74.4 733.114 76.65 733.114 79.45C733.114 82.25 734.714 84.35 737.914 85.75C741.114 87.15 746.264 88.6 753.364 90.1C761.364 91.8 767.964 93.65 773.164 95.65C778.464 97.55 783.014 100.65 786.814 104.95C790.714 109.15 792.664 114.9 792.664 122.2C792.664 128.5 790.914 134.2 787.414 139.3C783.914 144.4 778.664 148.5 771.664 151.6C764.664 154.6 756.164 156.1 746.164 156.1ZM812.783 49H842.483V154H812.783V49ZM940.363 99.25H966.613V142.75C960.613 147.05 953.713 150.35 945.913 152.65C938.113 154.95 930.313 156.1 922.513 156.1C911.513 156.1 901.613 153.8 892.813 149.2C884.013 144.5 877.113 138 872.113 129.7C867.113 121.4 864.613 112 864.613 101.5C864.613 91 867.113 81.6 872.113 73.3C877.113 65 884.063 58.55 892.963 53.95C901.863 49.25 911.913 46.9 923.113 46.9C932.913 46.9 941.713 48.55 949.513 51.85C957.313 55.15 963.813 59.9 969.013 66.1L950.113 83.2C943.013 75.4 934.513 71.5 924.613 71.5C915.613 71.5 908.363 74.25 902.863 79.75C897.363 85.15 894.613 92.4 894.613 101.5C894.613 107.3 895.863 112.5 898.363 117.1C900.863 121.6 904.363 125.15 908.863 127.75C913.363 130.25 918.513 131.5 924.313 131.5C930.013 131.5 935.363 130.35 940.363 128.05V99.25Z" fill="#194B7D"/>
</svg>
