<svg width="982" height="203" viewBox="0 0 982 203" fill="none" xmlns="http://www.w3.org/2000/svg">
<path fill-rule="evenodd" clip-rule="evenodd" d="M227.349 108.825C230.029 104.184 230.029 98.466 227.349 93.825L177.51 7.50001C174.83 2.85899 169.878 4.59138e-06 164.519 4.35713e-06L64.8398 0C59.4808 -2.34249e-07 54.5289 2.85898 51.8494 7.5L2.00962 93.825C-0.669873 98.466 -0.669873 104.184 2.00962 108.825L51.8494 195.15C54.5289 199.791 59.4808 202.65 64.8397 202.65H164.519C169.878 202.65 174.83 199.791 177.51 195.15L227.349 108.825ZM186.122 67.8223C186.941 65.9321 185.251 63.9178 183.247 64.3964L149.614 72.4306C147.806 72.8624 147.085 75.0455 148.28 76.4692L153.407 82.5802L126.933 105.73L105.826 81.8255C103.098 78.7359 98.3883 78.4265 95.2796 81.1328L65.2412 107.283C63.5089 106.64 61.6352 106.29 59.6795 106.29C50.8429 106.29 43.6795 113.453 43.6795 122.29C43.6795 131.126 50.8429 138.29 59.6795 138.29C68.516 138.29 75.6795 131.126 75.6795 122.29C75.6795 120.977 75.5214 119.701 75.2233 118.48L99.5113 97.3365L120.629 121.254C123.361 124.348 128.08 124.653 131.188 121.935L163.051 94.0733L168.16 100.162C169.355 101.586 171.63 101.255 172.369 99.5494L186.122 67.8223Z" fill="white"/>
<path d="M327.4 157.1C318.9 157.1 310.65 156.05 302.65 153.95C294.65 151.85 288.15 149.05 283.15 145.55L292.9 123.65C297.6 126.75 303.05 129.25 309.25 131.15C315.45 133.05 321.55 134 327.55 134C338.95 134 344.65 131.15 344.65 125.45C344.65 122.45 343 120.25 339.7 118.85C336.5 117.35 331.3 115.8 324.1 114.2C316.2 112.5 309.6 110.7 304.3 108.8C299 106.8 294.45 103.65 290.65 99.35C286.85 95.05 284.95 89.25 284.95 81.95C284.95 75.55 286.7 69.8 290.2 64.7C293.7 59.5 298.9 55.4 305.8 52.4C312.8 49.4 321.35 47.9 331.45 47.9C338.35 47.9 345.15 48.7 351.85 50.3C358.55 51.8 364.45 54.05 369.55 57.05L360.4 79.1C350.4 73.7 340.7 71 331.3 71C325.4 71 321.1 71.9 318.4 73.7C315.7 75.4 314.35 77.65 314.35 80.45C314.35 83.25 315.95 85.35 319.15 86.75C322.35 88.15 327.5 89.6 334.6 91.1C342.6 92.8 349.2 94.65 354.4 96.65C359.7 98.55 364.25 101.65 368.05 105.95C371.95 110.15 373.9 115.9 373.9 123.2C373.9 129.5 372.15 135.2 368.65 140.3C365.15 145.4 359.9 149.5 352.9 152.6C345.9 155.6 337.4 157.1 327.4 157.1ZM414.904 73.55H382.654V50H476.704V73.55H444.604V155H414.904V73.55ZM559.246 134.6H514.846L506.596 155H476.296L522.646 50H551.896L598.396 155H567.496L559.246 134.6ZM550.546 112.7L537.046 79.1L523.546 112.7H550.546ZM630.292 73.55H598.042V50H692.092V73.55H659.992V155H630.292V73.55ZM746.164 157.1C737.664 157.1 729.414 156.05 721.414 153.95C713.414 151.85 706.914 149.05 701.914 145.55L711.664 123.65C716.364 126.75 721.814 129.25 728.014 131.15C734.214 133.05 740.314 134 746.314 134C757.714 134 763.414 131.15 763.414 125.45C763.414 122.45 761.764 120.25 758.464 118.85C755.264 117.35 750.064 115.8 742.864 114.2C734.964 112.5 728.364 110.7 723.064 108.8C717.764 106.8 713.214 103.65 709.414 99.35C705.614 95.05 703.714 89.25 703.714 81.95C703.714 75.55 705.464 69.8 708.964 64.7C712.464 59.5 717.664 55.4 724.564 52.4C731.564 49.4 740.114 47.9 750.214 47.9C757.114 47.9 763.914 48.7 770.614 50.3C777.314 51.8 783.214 54.05 788.314 57.05L779.164 79.1C769.164 73.7 759.464 71 750.064 71C744.164 71 739.864 71.9 737.164 73.7C734.464 75.4 733.114 77.65 733.114 80.45C733.114 83.25 734.714 85.35 737.914 86.75C741.114 88.15 746.264 89.6 753.364 91.1C761.364 92.8 767.964 94.65 773.164 96.65C778.464 98.55 783.014 101.65 786.814 105.95C790.714 110.15 792.664 115.9 792.664 123.2C792.664 129.5 790.914 135.2 787.414 140.3C783.914 145.4 778.664 149.5 771.664 152.6C764.664 155.6 756.164 157.1 746.164 157.1ZM812.783 50H842.483V155H812.783V50ZM940.363 100.25H966.613V143.75C960.613 148.05 953.713 151.35 945.913 153.65C938.113 155.95 930.313 157.1 922.513 157.1C911.513 157.1 901.613 154.8 892.813 150.2C884.013 145.5 877.113 139 872.113 130.7C867.113 122.4 864.613 113 864.613 102.5C864.613 92 867.113 82.6 872.113 74.3C877.113 66 884.063 59.55 892.963 54.95C901.863 50.25 911.913 47.9 923.113 47.9C932.913 47.9 941.713 49.55 949.513 52.85C957.313 56.15 963.813 60.9 969.013 67.1L950.113 84.2C943.013 76.4 934.513 72.5 924.613 72.5C915.613 72.5 908.363 75.25 902.863 80.75C897.363 86.15 894.613 93.4 894.613 102.5C894.613 108.3 895.863 113.5 898.363 118.1C900.863 122.6 904.363 126.15 908.863 128.75C913.363 131.25 918.513 132.5 924.313 132.5C930.013 132.5 935.363 131.35 940.363 129.05V100.25Z" fill="white"/>
</svg>
